<svg xmlns="http://www.w3.org/2000/svg" xmlns:xlink="http://www.w3.org/1999/xlink" fill="none" version="1.1" width="30" height="30" viewBox="0 0 30 30"><g><g style="opacity:0;"><rect x="0" y="0" width="30" height="30" rx="0" fill="#333333" fill-opacity="1"/></g><g><path d="M14.4451,29.4321C14.0191,28.9793,4,18.2871,4,11.9019C4,5.33912,8.93413,0,14.9992,0C21.0635,0,25.9984,5.30789,26,11.832C26.0016,18.2132,15.6401,29.3475,15.5354,29.4502L14.9812,30L14.4451,29.4321ZM15.0005,1.64429C9.797509999999999,1.64429,5.56445,6.24627,5.56445,11.9026C5.56445,16.83,12.91915,25.3535,15.0091,27.6759C17.270200000000003,25.1769,24.4397,16.5038,24.4381,11.8327C24.4366,6.21504,20.2027,1.64429,15.0005,1.64429ZM10.30078,10.9534C10.30078,8.10267,12.44076,5.78442,15.0716,5.78442C17.7008,5.78442,19.8408,8.10349,19.8408,10.9534C19.8408,13.8034,17.7016,16.1233,15.0716,16.1233C12.44154,16.1233,10.30078,13.8042,10.30078,10.9534ZM15.0709,7.42896C13.30218,7.42896,11.86328,9.01007,11.86328,10.9544C11.86328,12.8987,13.30218,14.4799,15.0709,14.4799C16.8388,14.4799,18.277,12.8987,18.277,10.9544C18.277,9.01007,16.8388,7.42896,15.0709,7.42896Z" fill-rule="evenodd" fill="#333333" fill-opacity="1"/></g></g></svg>