<svg xmlns="http://www.w3.org/2000/svg" xmlns:xlink="http://www.w3.org/1999/xlink" fill="none" version="1.1" width="16" height="16" viewBox="0 0 16 16"><g><g style="opacity:0;"><rect x="0" y="0" width="16" height="16" rx="0" fill="#333333" fill-opacity="1"/></g><g><path d="M8.00078125,1C4.00078125,1,0.80078125,4.25,0.80078125,8.2C0.80078125,12.15,4.05078125,15.4,8.00078125,15.4C11.95078125,15.4,15.20078125,12.15,15.20078125,8.2C15.20078125,4.25,12.00078125,1,8.00078125,1ZM8.00078125,14.7C4.45078125,14.7,1.55078125,11.8,1.55078125,8.24999C1.55078125,4.69999,4.45078125,1.799988,8.00078125,1.799988C11.55078125,1.799988,14.45078125,4.69999,14.45078125,8.24999C14.45078125,11.8,11.60078125,14.7,8.00078125,14.7ZM8.301561249999999,8.5L12.65158125,8.5C12.85158125,8.5,13.00158125,8.65,13.00158125,8.9C13.00158125,9.1,12.85158125,9.25,12.65158125,9.25L7.95156125,9.25C7.75156125,9.25,7.60156125,9.1,7.60156125,8.9L7.60156125,4.1C7.60156125,3.9,7.75156125,3.75,7.95156125,3.75C8.15156125,3.75,8.301561249999999,3.9,8.301561249999999,4.1L8.301561249999999,8.5Z" fill-rule="evenodd" fill="#333333" fill-opacity="1"/></g></g></svg>