<svg xmlns="http://www.w3.org/2000/svg" xmlns:xlink="http://www.w3.org/1999/xlink" fill="none" version="1.1" width="48" height="48" viewBox="0 0 48 48"><defs><clipPath id="master_svg0_20_1718"><rect x="0" y="0" width="48" height="48" rx="0"/></clipPath></defs><g clip-path="url(#master_svg0_20_1718)"><g><path d="M24.09455625,5.559326171875C13.89453625,5.559326171875,5.59765625,13.851516171875,5.59765625,24.056226171875C5.59765625,34.260926171875,13.89453625,42.548426171875,24.09455625,42.548426171875C34.29455625,42.548426171875,42.59135625,34.256226171875,42.59135625,24.051526171875C42.59135625,13.846826171875,34.29455625,5.559326171875,24.09455625,5.559326171875ZM24.09455625,40.546826171875C15.00077625,40.546826171875,7.60390625,33.149926171874995,7.60390625,24.056226171875C7.60390625,14.962446171875,15.00077625,7.565576171875,24.09455625,7.565576171875C33.188256249999995,7.565576171875,40.58515625,14.962446171875,40.58515625,24.056226171875C40.58515625,33.149926171874995,33.188256249999995,40.546826171875,24.09455625,40.546826171875Z" fill="#016FD9" fill-opacity="1" style="mix-blend-mode:passthrough"/></g><g><path d="M28.889846249999998,15.2812205859375L27.474216249999998,13.8656005859375L20.22265625,21.117160585937498C19.43984325,21.8999705859375,19.00390625,22.9452905859375,19.00390625,24.0562005859375C19.00390625,25.1672005859375,19.43515625,26.2078005859375,20.22265625,26.9953005859375L27.474216249999998,34.2468005859375L28.889846249999998,32.831200585937495L21.63827625,25.579700585937502C21.23046625,25.1719005859375,21.00546625,24.632800585937503,21.00546625,24.0562005859375C21.00546625,23.479660585937502,21.23046625,22.9406005859375,21.63827625,22.532790585937498L28.889846249999998,15.2812205859375Z" fill="#016FD9" fill-opacity="1" style="mix-blend-mode:passthrough"/></g></g></svg>