<svg xmlns="http://www.w3.org/2000/svg" xmlns:xlink="http://www.w3.org/1999/xlink" fill="none" version="1.1" width="48" height="48" viewBox="0 0 48 48"><defs><clipPath id="master_svg0_20_1722"><rect x="48" y="0" width="48" height="48" rx="0"/></clipPath></defs><g transform="matrix(-1,0,0,1,96,0)" clip-path="url(#master_svg0_20_1722)"><g><path d="M72.09455625,5.559326171875C61.89452625,5.559326171875,53.59765625,13.851516171875,53.59765625,24.056226171875C53.59765625,34.260926171875,61.89452625,42.548426171875,72.09455625,42.548426171875C82.29455625,42.548426171875,90.59135624999999,34.256226171875,90.59135624999999,24.051526171875C90.59135624999999,13.846826171875,82.29455625,5.559326171875,72.09455625,5.559326171875ZM72.09455625,40.546826171875C63.00077625,40.546826171875,55.60390625,33.149926171874995,55.60390625,24.056226171875C55.60390625,14.962446171875,63.00077625,7.565576171875,72.09455625,7.565576171875C81.18825625,7.565576171875,88.58515625,14.962446171875,88.58515625,24.056226171875C88.58515625,33.149926171874995,81.18825625,40.546826171875,72.09455625,40.546826171875Z" fill="#016FD9" fill-opacity="1" style="mix-blend-mode:passthrough"/></g><g><path d="M76.88984625,15.2812205859375L75.47421625,13.8656005859375L68.22265625,21.117160585937498C67.43984325,21.8999705859375,67.00390625,22.9452905859375,67.00390625,24.0562005859375C67.00390625,25.1672005859375,67.43515625,26.2078005859375,68.22265625,26.9953005859375L75.47421625,34.2468005859375L76.88984625,32.831200585937495L69.63827625,25.579700585937502C69.23046625,25.1719005859375,69.00546625,24.632800585937503,69.00546625,24.0562005859375C69.00546625,23.479660585937502,69.23046625,22.9406005859375,69.63827625,22.532790585937498L76.88984625,15.2812205859375Z" fill="#016FD9" fill-opacity="1" style="mix-blend-mode:passthrough"/></g></g></svg>