<svg xmlns="http://www.w3.org/2000/svg" xmlns:xlink="http://www.w3.org/1999/xlink" fill="none" version="1.1" width="24" height="24" viewBox="0 0 24 24"><defs><clipPath id="master_svg0_16_0948"><rect x="0" y="0" width="24" height="24" rx="0"/></clipPath></defs><g clip-path="url(#master_svg0_16_0948)"><g><path d="M12,21.450048828125C11.325,21.450048828125,10.725,21.150048828125,10.275,20.625048828125L8.925,19.050048828125L5.775,19.050048828125C3.825,19.050048828125,2.25,17.475048828125,2.25,15.600048828125L2.25,6.000048828125C2.25,4.125048828125,3.825,2.550048828125,5.775,2.550048828125L18.225,2.550048828125C19.2,2.550048828125,20.1,2.925048828125,20.775,3.600048828125C21.375,4.200048828125,21.75,5.100048828125,21.75,6.000048828125L21.75,15.600048828125C21.75,17.475048828125,20.175,19.050048828125,18.225,19.050048828125L15.075,19.050048828125L13.725,20.625048828125C13.275,21.150048828125,12.675,21.450048828125,12,21.450048828125ZM5.775,4.050048828125C4.65,4.050048828125,3.75,4.875048828125,3.75,6.000048828125L3.75,15.600048828125C3.75,16.650048828125,4.65,17.550048828125,5.775,17.550048828125L9.075,17.550048828125C9.45,17.550048828125,9.75,17.700048828125,9.975,17.925048828125L11.4,19.650048828125C11.55,19.800048828125,11.775,19.950048828125,12,19.950048828125C12.225,19.950048828125,12.45,19.875048828125,12.6,19.650048828125L14.025,17.925048828125C14.25,17.700048828125,14.55,17.550048828125,14.925,17.550048828125L18.225,17.550048828125C19.35,17.550048828125,20.25,16.650048828125,20.25,15.600048828125L20.25,6.000048828125C20.25,5.475048828125,20.025,5.025048828125,19.65,4.650048828125C19.275,4.275048828125,18.75,4.050048828125,18.15,4.050048828125L5.775,4.050048828125Z" fill="#000000" fill-opacity="1" style="mix-blend-mode:passthrough"/></g><g><path d="M7.649609375,8.175048828125L16.874609375,8.175048828125Q16.949609375,8.175048828125,16.949609375,8.250048828125Q17.024609375,8.250048828125,17.024609375,8.325048828125L17.099609375,8.400048828125L17.174609375,8.475048828125Q17.174609375,8.550048828125,17.249609375,8.550048828125L17.249609375,9.300048828125Q17.249609375,9.375048828125,17.174609375,9.375048828125L17.099609375,9.450048828125L17.024609375,9.525048828125L16.949609375,9.600048828125Q16.874609375,9.600048828125,16.874609375,9.675048828125L16.799609375,9.675048828125L16.724609375,9.675048828125L16.649609375,9.675048828125L16.574609375,9.675048828125L16.499609375,9.675048828125L7.649609375,9.675048828125L7.574609375,9.675048828125L7.499609375,9.675048828125L7.424609375,9.675048828125L7.349609375,9.675048828125L7.274609375,9.675048828125L7.199609375,9.675048828125Q7.124609375,9.675048828125,7.124609375,9.600048828125Q7.049609375,9.600048828125,7.049609375,9.525048828125L6.974609375,9.450048828125L6.899609375,9.375048828125Q6.899609375,9.300048828125,6.824609375,9.300048828125L6.824609375,9.225048828125L6.824609375,9.150048828125L6.824609375,9.075048828125L6.824609375,9.000048828125L6.824609375,8.925048828125L6.824609375,8.850048828125L6.824609375,8.775048828125L6.824609375,8.700048828125L6.824609375,8.625048828125L6.824609375,8.550048828125Q6.824609375,8.475048828125,6.899609375,8.475048828125L6.974609375,8.400048828125L7.049609375,8.325048828125L7.124609375,8.250048828125Q7.199609375,8.250048828125,7.199609375,8.175048828125L7.649609375,8.175048828125C7.574609375,8.175048828125,7.574609375,8.175048828125,7.649609375,8.175048828125ZM7.649609375,12.000048828125L16.874609375,12.000048828125Q16.949609375,12.000048828125,16.949609375,12.075048828125Q17.024609375,12.075048828125,17.024609375,12.150048828125L17.099609375,12.225048828125L17.174609375,12.300048828125Q17.174609375,12.375048828125,17.249609375,12.375048828125L17.249609375,13.125048828125Q17.249609375,13.200048828125,17.174609375,13.200048828125L17.099609375,13.275048828125L17.024609375,13.350048828125L16.949609375,13.425048828125Q16.874609375,13.425048828125,16.874609375,13.500048828125Q16.874609375,13.575048828125,16.799609375,13.500048828125L16.724609375,13.500048828125L16.649609375,13.500048828125L16.574609375,13.500048828125L16.499609375,13.500048828125L7.649609375,13.500048828125L7.574609375,13.500048828125L7.499609375,13.500048828125L7.424609375,13.500048828125L7.349609375,13.500048828125L7.274609375,13.500048828125L7.199609375,13.500048828125Q7.124609375,13.500048828125,7.124609375,13.425048828125Q7.049609375,13.425048828125,7.049609375,13.350048828125L6.974609375,13.275048828125L6.899609375,13.200048828125Q6.899609375,13.125048828125,6.824609375,13.125048828125Q6.749609375,13.125048828125,6.824609375,13.050048828125L6.824609375,12.975048828125L6.824609375,12.900048828125L6.824609375,12.825048828125L6.824609375,12.750048828125L6.824609375,12.675048828125L6.824609375,12.600048828125L6.824609375,12.525048828125L6.824609375,12.450048828125L6.824609375,12.375048828125Q6.824609375,12.300048828125,6.899609375,12.300048828125L6.974609375,12.225048828125L7.049609375,12.150048828125L7.124609375,12.075048828125Q7.199609375,12.075048828125,7.199609375,12.000048828125L7.649609375,12.000048828125C7.574609375,12.000048828125,7.574609375,12.000048828125,7.649609375,12.000048828125Z" fill="#000000" fill-opacity="1" style="mix-blend-mode:passthrough"/></g></g></svg>