<svg xmlns="http://www.w3.org/2000/svg" xmlns:xlink="http://www.w3.org/1999/xlink" fill="none" version="1.1" width="24" height="24" viewBox="0 0 24 24"><defs><clipPath id="master_svg0_16_0953"><rect x="0" y="0" width="24" height="24" rx="0"/></clipPath></defs><g clip-path="url(#master_svg0_16_0953)"><g><path d="M20.2681875,20.9875798828125L19.4815875,20.9875798828125L19.4815875,18.7173798828125C19.4815875,15.7623798828125,17.770287500000002,13.2073798828125,15.2848875,11.9884798828125C17.770287500000002,10.7694798828125,19.4815875,8.2145098828125,19.4815875,5.2595098828125L19.4815875,2.9893798828125L20.2681875,2.9893798828125C20.6736875,2.9893798828125,21.0023875,2.6535898828124997,21.0023875,2.2393798828125C21.0023875,1.8251688828125001,20.6736875,1.4893798828125,20.2681875,1.4893798828125L3.7263905,1.4893798828125C3.3209225,1.4893798828125,2.9922110748,1.8251688828125001,2.9922110748,2.2393798828125C2.9922110748,2.6535898828124997,3.3209225,2.9893798828125,3.7263905,2.9893798828125L4.5002975,2.9893798828125L4.5002975,5.2595098828125C4.5002975,8.2145098828125,6.2116074999999995,10.7694798828125,8.6970375,11.9884798828125C6.2115875,13.2073798828125,4.5002775,15.7623798828125,4.5002775,18.7173798828125L4.5002775,20.9874798828125L3.7263675000000003,20.9874798828125C3.3208985,20.9874798828125,2.9921875,21.3232798828125,2.9921875,21.7374798828125C2.9921875,22.1517798828125,3.3208985,22.4874798828125,3.7263675000000003,22.4874798828125L20.2681875,22.4874798828125C20.6736875,22.4874798828125,21.0023875,22.1517798828125,21.0023875,21.7374798828125C21.0023875,21.3232798828125,20.6736875,20.9875798828125,20.2681875,20.9875798828125ZM6.0005775,5.2130798828125L6.0005775,2.9893798828125L18.025087499999998,2.9893798828125L18.025087499999998,5.2130798828125C18.025087499999998,8.5335698828125,15.3332875,11.2253198828125,12.0128375,11.2253198828125C8.6923475,11.2253198828125,6.0005775,8.5335698828125,6.0005775,5.2130798828125ZM18.025087499999998,20.9875798828125L6.0005775,20.9875798828125L6.0005775,18.7637798828125C6.0005775,15.4433798828125,8.6923475,12.7515798828125,12.0128375,12.7515798828125C15.3332875,12.7515798828125,18.025087499999998,15.4433798828125,18.025087499999998,18.7637798828125L18.025087499999998,20.9875798828125Z" fill="#000000" fill-opacity="1" style="mix-blend-mode:passthrough"/></g><g><path d="M12.75268625,9.000033125C12.75268625,8.585423125,12.416566249999999,8.249303125,12.00195625,8.249303125C10.321636250000001,8.249303125,9.00538625,6.933033125,9.00538625,5.252703125C9.00538625,4.838093125,8.66926625,4.501953125,8.25465625,4.501953125C7.84004625,4.501953125,7.50390625,4.838070125,7.50390625,5.252703125C7.50390625,7.774973125,9.47968625,9.750783125,12.00195625,9.750783125C12.416566249999999,9.750783125,12.75268625,9.414643125,12.75268625,9.000033125Z" fill="#000000" fill-opacity="1" style="mix-blend-mode:passthrough"/></g></g></svg>