<svg xmlns="http://www.w3.org/2000/svg" xmlns:xlink="http://www.w3.org/1999/xlink" fill="none" version="1.1" width="30" height="30" viewBox="0 0 30 30"><g><g style="opacity:0;"><rect x="0" y="0" width="30" height="30" rx="0" fill="#333333" fill-opacity="1"/></g><g><path d="M14.999999046325684,1.875C7.499999046325684,1.875,1.4999990463256836,7.96875,1.4999990463256836,15.375C1.4999990463256836,22.7812,7.593749046325684,28.875,14.999999046325684,28.875C22.406199046325682,28.875,28.499999046325684,22.7812,28.499999046325684,15.375C28.499999046325684,7.96875,22.499999046325684,1.875,14.999999046325684,1.875ZM14.999999046325684,27.5625C8.343749046325684,27.5625,2.9062490463256836,22.125,2.9062490463256836,15.4688C2.9062490463256836,8.8125,8.343749046325684,3.375,14.999999046325684,3.375C21.656199046325682,3.375,27.093799046325685,8.8125,27.093799046325685,15.4688C27.093799046325685,22.125,21.749999046325684,27.5625,14.999999046325684,27.5625ZM15.562499046325684,15.9375L23.718799046325685,15.9375C24.093799046325685,15.9375,24.374999046325684,16.2188,24.374999046325684,16.6875C24.374999046325684,17.0625,24.093799046325685,17.3438,23.718799046325685,17.3438L14.906199046325684,17.3438C14.531199046325684,17.3438,14.249999046325684,17.0625,14.249999046325684,16.6875L14.249999046325684,7.6875C14.249999046325684,7.3125,14.531199046325684,7.03125,14.906199046325684,7.03125C15.281199046325684,7.03125,15.562499046325684,7.3125,15.562499046325684,7.6875L15.562499046325684,15.9375Z" fill-rule="evenodd" fill="#333333" fill-opacity="1"/></g></g></svg>