<svg xmlns="http://www.w3.org/2000/svg" xmlns:xlink="http://www.w3.org/1999/xlink" fill="none" version="1.1" width="24" height="24" viewBox="0 0 24 24"><g><g style="opacity:0;"><rect x="0" y="0" width="24" height="24" rx="0" fill="#000000" fill-opacity="1"/></g><g><path d="M11.999609375,1.600000023841858C6.221829375,1.600000023841858,1.599609375,6.294450023841858,1.599609375,12.000000023841858C1.599609375,17.705600023841857,6.294059375,22.40000002384186,11.999609375,22.40000002384186C17.705209375,22.40000002384186,22.399609375,17.705600023841857,22.399609375,12.000000023841858C22.399609375,6.294450023841858,17.777409375,1.600000023841858,11.999609375,1.600000023841858ZM12.000309375,21.38890002384186C6.872479375,21.38890002384186,2.683589375,17.20000002384186,2.683589375,12.072200023841859C2.683589375,6.944470023841858,6.872479375,2.755580023841858,12.000309375,2.755580023841858C17.128009374999998,2.755580023841858,21.316909375,6.944470023841858,21.316909375,12.072200023841859C21.316909375,17.20000002384186,17.200309375,21.38890002384186,12.000309375,21.38890002384186ZM12.433009375,12.433300023841857L18.716309375,12.433300023841857C19.005209375,12.433300023841857,19.221909375,12.650000023841859,19.221909375,13.011100023841857C19.221909375,13.300000023841857,19.005209375,13.516700023841858,18.716309375,13.516700023841858L11.927409375,13.516700023841858C11.638509375,13.516700023841858,11.421879375,13.300000023841857,11.421879375,13.011100023841857L11.421879375,6.077780023841858C11.421879375,5.788900023841858,11.638509375,5.572230023841858,11.927409375,5.572230023841858C12.216309375,5.572230023841858,12.433009375,5.788900023841858,12.433009375,6.077780023841858L12.433009375,12.433300023841857Z" fill-rule="evenodd" fill="#000000" fill-opacity="1"/><path d="M11.999609375,1.900000023841858Q7.803409375,1.900000023841858,4.845579375,4.872040023841858Q1.899609375,7.832170023841858,1.899609375,12.000000023841858Q1.899609375,16.154900023841858,4.872159375,19.127500023841858Q7.844699375,22.100000023841858,11.999609375,22.100000023841858Q16.154509375,22.100000023841858,19.127109375,19.127500023841858Q22.099609375,16.154900023841858,22.099609375,12.000000023841858Q22.099609375,7.8321800238418575,19.153609375,4.872040023841858Q16.195809375,1.899997023841858,11.999609375,1.899999023841858L11.999609375,1.900000023841858ZM11.999609375,1.299999023841858Q16.445209374999997,1.3000000238418579,19.578909375,4.448790023841858Q22.699609375,7.584490023841858,22.699609375,12.000000023841858Q22.699609375,16.403400023841858,19.551309375,19.551700023841857Q16.403009375,22.70000002384186,11.999609375,22.70000002384186Q7.596179375,22.70000002384186,4.447889375,19.551700023841857Q1.299609375,16.403400023841858,1.299609375,12.000000023841858Q1.299609375,7.584490023841858,4.420299375,4.448790023841858Q7.554039375,1.3000000238418579,11.999609375,1.3000000238418579L11.999609375,1.299999023841858ZM12.000309375,21.688900023841857Q8.030159375,21.688900023841857,5.206879375,18.865600023841857Q2.3835933750000002,16.042300023841857,2.3835933750000002,12.072200023841859Q2.3835933750000002,8.102150023841858,5.206879375,5.278860023841858Q8.030159375,2.455579023841858,12.000309375,2.455579023841858Q15.970409375,2.455579023841858,18.793609375,5.278860023841858Q21.616909375,8.102140023841859,21.616909375,12.072200023841859Q21.616909375,16.054400023841858,18.821309375,18.86510002384186Q16.012509375,21.688900023841857,12.000309375,21.688900023841857ZM12.000309375,21.08890002384186Q15.763109375,21.08890002384186,18.395909375,18.441900023841857Q21.016909375,15.806800023841857,21.016909375,12.072200023841859Q21.016909375,8.350670023841857,18.369409375,5.703130023841858Q15.721809375,3.0555800238418582,12.000309375,3.0555800238418582Q8.278689374999999,3.0555800238418582,5.631139375,5.703130023841858Q2.983589375,8.350680023841857,2.983589375,12.072200023841859Q2.983589375,15.793800023841857,5.631139375,18.441400023841858Q8.278689374999999,21.08890002384186,12.000309375,21.08890002384186ZM12.433009375,12.133300023841858L18.716309375,12.133300023841858Q19.070609375,12.133300023841858,19.299409375,12.385000023841858Q19.521909375,12.629700023841858,19.521909375,13.011100023841857Q19.521909375,13.352100023841858,19.289609375,13.584400023841859Q19.057209375,13.816700023841857,18.716309375,13.816700023841857L11.927409375,13.816700023841857Q11.586499375,13.816700023841857,11.354189375,13.584400023841859Q11.121879375,13.352000023841859,11.121879375,13.011100023841857L11.121879375,6.077780023841858Q11.121879375,5.272230023841858,11.927409375,5.272230023841858Q12.733009375,5.272230023841858,12.733009375,6.077780023841858L12.733009375,12.433300023841857L12.433009375,12.433300023841857L12.433009375,12.133300023841858ZM12.133009375,12.733300023841858L12.133009375,6.077780023841858Q12.133009375,5.872230023841858,11.927409375,5.872230023841858Q11.721909375,5.872230023841858,11.721909375,6.077780023841858L11.721909375,13.011100023841857Q11.721909375,13.216700023841858,11.927409375,13.216700023841858L18.716309375,13.216700023841858Q18.921909375,13.216700023841858,18.921909375,13.011100023841857Q18.921909375,12.733300023841858,18.716309375,12.733300023841858L12.433009375,12.733300023841858L12.133009375,12.733300023841858Z" fill="#000000" fill-opacity="1"/></g></g></svg>