<svg xmlns="http://www.w3.org/2000/svg" xmlns:xlink="http://www.w3.org/1999/xlink" fill="none" version="1.1" width="24" height="24" viewBox="0 0 24 24"><defs><clipPath id="master_svg0_16_0951"><rect x="0" y="0" width="24" height="24" rx="0"/></clipPath></defs><g clip-path="url(#master_svg0_16_0951)"><g><path d="M18.55141875,11.6162755859375C19.79321875,11.6162755859375,20.79921875,10.5811755859375,20.79921875,9.3035255859375C20.79921875,8.0258755859375,19.79321875,6.9928755859375,18.55141875,6.9928755859375C17.309718750000002,6.9928755859375,16.30571875,8.027965585937501,16.30571875,9.3035255859375C16.30571875,9.3850755859375,16.309818749999998,9.4645355859375,16.31791875,9.5419055859375L15.83221875,9.7844755859375C15.27331875,8.9710455859375,14.35261875,8.4378155859375,13.31011875,8.4378155859375C13.08854875,8.4378155859375,12.87311875,8.4629055859375,12.66582875,8.508915585937501L12.31625875,7.5637455859375C13.14341875,6.9719655859375,13.68401875,5.9891555859375,13.68401875,4.8746155859375C13.68401875,3.0658255859375,12.25935875,1.5999755859375,10.50138875,1.5999755859375C8.74341875,1.5999755859375,7.31875875,3.0658255859375,7.31875875,4.8746155859375C7.31875875,6.6833955859375,8.74341875,8.1492455859375,10.50138875,8.1492455859375C10.69648875,8.1492455859375,10.88549875,8.1283355859375,11.070438750000001,8.094875585937501L11.44032875,9.0923255859375C10.700558749999999,9.6736455859375,10.220928749999999,10.5874455859375,10.220928749999999,11.6183755859375C10.220928749999999,11.9299755859375,10.26563875,12.2289755859375,10.34692875,12.5133755859375L9.69861875,12.8353755859375C9.058428750000001,11.8671755859375,7.97926875,11.2315055859375,6.75579875,11.2315055859375C4.79053875,11.2315055859375,3.19921875,12.8708755859375,3.19921875,14.8908755859375C3.19921875,16.9108755859375,4.79256875,18.5502755859375,6.75579875,18.5502755859375C8.71902875,18.5502755859375,10.31237875,16.9108755859375,10.31237875,14.8908755859375C10.31237875,14.6232755859375,10.28189875,14.3618755859375,10.22905875,14.1088755859375L11.00133875,13.7240755859375C11.56632875,14.3785755859375,12.38942875,14.7925755859375,13.30801875,14.7925755859375C13.38731875,14.7925755859375,13.46651875,14.7863755859375,13.54581875,14.7800755859375L14.27541875,16.749875585937502C13.46651875,17.301875585937502,12.93408875,18.2449755859375,12.93408875,19.3176755859375C12.93408875,21.0198755859375,14.27541875,22.3999755859375,15.92971875,22.3999755859375C17.58401875,22.3999755859375,18.92541875,21.0198755859375,18.92541875,19.3176755859375C18.92541875,17.6155755859375,17.58401875,16.2354755859375,15.92971875,16.2354755859375C15.79761875,16.2354755859375,15.66761875,16.2479755859375,15.53951875,16.2647755859375L14.83841875,14.3722755859375C15.76921875,13.8244755859375,16.39921875,12.7956755859375,16.39921875,11.6120755859375C16.39921875,11.4238855859375,16.38091875,11.2419555859375,16.35041875,11.0642155859375L16.85651875,10.8132855859375C17.26701875,11.3046955859375,17.87471875,11.6162755859375,18.55141875,11.6162755859375ZM18.55141875,8.3792655859375C19.047318750000002,8.3792655859375,19.44971875,8.7933055859375,19.44971875,9.3035255859375C19.44971875,9.8137455859375,19.047318750000002,10.2277855859375,18.55141875,10.2277855859375C18.05561875,10.2277855859375,17.65311875,9.8137455859375,17.65311875,9.3035255859375C17.65311875,8.7933055859375,18.05761875,8.3792655859375,18.55141875,8.3792655859375ZM6.75579875,17.1638755859375C5.53842875,17.1638755859375,4.54665875,16.1434755859375,4.54665875,14.8908755859375C4.54665875,13.6383755859375,5.53842875,12.6178755859375,6.75579875,12.6178755859375C7.97316875,12.6178755859375,8.96494875,13.6383755859375,8.96494875,14.8908755859375C8.96494875,16.1434755859375,7.97519875,17.1638755859375,6.75579875,17.1638755859375ZM10.50138875,6.7607655859375C9.48928875,6.7607655859375,8.66618875,5.9138755859375,8.66618875,4.872515585937499C8.66618875,3.8311655859375,9.48928875,2.9842755859375,10.50138875,2.9842755859375C11.51348875,2.9842755859375,12.33658875,3.8311655859375,12.33658875,4.872515585937499C12.33658875,5.9138755859375,11.51348875,6.7607655859375,10.50138875,6.7607655859375ZM15.93181875,17.6260755859375C16.84021875,17.6260755859375,17.58001875,18.3871755859375,17.58001875,19.3218755859375C17.58001875,20.2565755859375,16.84021875,21.0177755859375,15.93181875,21.0177755859375C15.02331875,21.0177755859375,14.28351875,20.2565755859375,14.28351875,19.3218755859375C14.28351875,18.3871755859375,15.02331875,17.6260755859375,15.93181875,17.6260755859375ZM13.31011875,13.4082755859375C12.34877875,13.4082755859375,11.56836875,12.6053755859375,11.56836875,11.6162755859375C11.56836875,10.6271755859375,12.34877875,9.8242055859375,13.31011875,9.8242055859375C14.27131875,9.8242055859375,15.05181875,10.6271755859375,15.05181875,11.6162755859375C15.05181875,12.6053755859375,14.26931875,13.4082755859375,13.31011875,13.4082755859375Z" fill="#000000" fill-opacity="1" style="mix-blend-mode:passthrough"/><path d="M16.83131875,10.9373955859375Q17.51961875,11.7162755859375,18.55141875,11.7162755859375Q19.52501875,11.7162755859375,20.21271875,11.0087055859375Q20.89921875,10.3023555859375,20.89921875,9.3035255859375Q20.89921875,8.304865585937499,20.21261875,7.5993455859375Q19.52521875,6.8928755859375,18.55141875,6.8928755859375Q17.578218749999998,6.8928755859375,16.89121875,7.6001955859375Q16.205718750000003,8.3059255859375,16.205718750000003,9.3035255859375Q16.205718750000003,9.3948255859375,16.212218749999998,9.4829055859375L15.86431875,9.6566355859375Q15.43571875,9.0652455859375,14.80041875,8.718345585937499Q14.10361875,8.3378155859375,13.31011875,8.3378155859375Q13.01848875,8.3378155859375,12.72976875,8.3935355859375L12.43622875,7.5998355859375Q13.04403875,7.1444455859375,13.39901875,6.4613355859375Q13.78401875,5.7206055859375,13.78401875,4.8746155859375Q13.78401875,3.4774355859375,12.82365875,2.4893025859374998Q11.86212875,1.4999755859375,10.50138875,1.4999755859375Q9.14065875,1.4999755859375,8.17912875,2.4893025859374998Q7.21875875,3.4774355859375,7.21875875,4.8746155859375Q7.21875875,6.2717855859375,8.17912875,7.2599255859375Q9.14065875,8.249255585937501,10.50138875,8.2492455859375Q10.741508750000001,8.2492455859375,11.005498750000001,8.2073455859375L11.32150875,9.0595155859375Q10.77799875,9.505825585937501,10.46355875,10.1424655859375Q10.120928750000001,10.8361455859375,10.120928750000001,11.6183755859375Q10.120928750000001,12.0451755859375,10.22882875,12.4603755859375L9.73239875,12.7069755859375Q9.24111875,11.9986755859375,8.49458875,11.5830055859375Q7.68374875,11.1315055859375,6.75579875,11.1315055859375Q5.23993875,11.1314955859375,4.1688107500000005,12.2340755859375Q3.09921875,13.3349755859375,3.09921905,14.8908755859375Q3.09921875,16.4464755859375,4.16958675,17.5477755859375Q5.24110875,18.6502755859375,6.75579875,18.6502755859375Q8.27048875,18.6502755859375,9.342018750000001,17.5477755859375Q10.41238875,16.4464755859375,10.41237875,14.8908755859375Q10.41237875,14.5340755859375,10.342078749999999,14.1642755859375L10.97712875,13.8478755859375Q11.91634875,14.8925755859375,13.30801875,14.8925755859375Q13.37061875,14.8925755859375,13.47821875,14.8853755859375L14.15481875,16.712275585937498Q13.56201875,17.1379755859375,13.21321875,17.7914755859375Q12.83408875,18.5017755859375,12.83408875,19.3176755859375Q12.83408875,20.6349755859375,13.73981875,21.5668755859375Q14.64671875,22.4999755859375,15.92971875,22.4999755859375Q17.21271875,22.4999755859375,18.11961875,21.5668755859375Q19.02541875,20.6348755859375,19.02541875,19.3176755859375Q19.02541875,18.0005755859375,18.11961875,17.068575585937502Q17.21271875,16.1354755859375,15.92971875,16.1354755859375Q15.78741875,16.1354755859375,15.60581875,16.1558755859375L14.96081875,14.4150755859375Q15.64451875,13.9895755859375,16.05441875,13.2806755859375Q16.49921875,12.5113755859375,16.49921875,11.6120755859375Q16.49921875,11.3744955859375,16.460918749999998,11.1210655859375L16.83131875,10.9373955859375ZM18.55141875,11.5162655859375Q17.57411875,11.5162655859375,16.93321875,10.7491755859375L16.882718750000002,10.6886755859375L16.239318750000002,11.0077155859375L16.25191875,11.0811255859375Q16.29921875,11.3571155859375,16.29921875,11.6120755859375Q16.29921875,12.4576755859375,15.88131875,13.1804755859375Q15.47641875,13.8807755859375,14.78761875,14.2861755859375L14.71551875,14.3285755859375L15.47341875,16.3742755859375L15.55251875,16.3638755859375Q15.77011875,16.335475585937502,15.92971875,16.335475585937502Q17.128218750000002,16.335475585937502,17.97621875,17.2079755859375Q18.82541875,18.0816755859375,18.82541875,19.3176755859375Q18.82541875,20.5537755859375,17.97621875,21.4274755859375Q17.128218750000002,22.2999755859375,15.92971875,22.2999755859375Q14.73131875,22.2999755859375,13.88321875,21.4274755859375Q13.03408875,20.5537755859375,13.03408875,19.3176755859375Q13.03409875,18.5518755859375,13.38961875,17.8856755859375Q13.73401875,17.2404755859375,14.33181875,16.8324755859375L14.39631875,16.7883755859375L13.61331875,14.6743755859375L13.53791875,14.6803755859375Q13.38331875,14.6925755859375,13.30801875,14.6925755859375Q11.96951875,14.6925755859375,11.07703875,13.6587755859375L11.02627875,13.5999755859375L10.11539875,14.0537755859375L10.13116875,14.1292755859375Q10.21237875,14.5181755859375,10.21237875,14.8908755859375Q10.21237875,16.3652755859375,9.198588749999999,17.4083755859375Q8.18596875,18.4502755859375,6.75579875,18.4502755859375Q5.32562875,18.4502755859375,4.31300875,17.4083755859375Q3.29921875,16.3652755859375,3.29921875,14.8908755859375Q3.29921875,13.4160755859375,4.31225875,12.3733755859375Q5.32447875,11.3315055859375,6.75579875,11.3315055859375Q7.63181875,11.3315055859375,8.397288750000001,11.7577755859375Q9.139408750000001,12.1709755859375,9.61520875,12.8904755859375L9.66394875,12.9642755859375L10.46595875,12.5658755859375L10.44307875,12.4858755859375Q10.32092875,12.0585755859375,10.32092875,11.6183755859375Q10.32092875,10.8828455859375,10.642878750000001,10.2310355859375Q10.95355875,9.6020155859375,11.50211875,9.170955585937499L11.55943875,9.1259155859375L11.13507875,7.9815655859375L11.05263875,7.9964755859375Q10.76092875,8.0492455859375,10.50138875,8.0492455859375Q9.22516875,8.0492555859375,8.32254875,7.1205255859375Q7.41875875,6.1906155859375,7.41875875,4.8746155859375Q7.41875875,3.5586155859375,8.32254875,2.6286955859375Q9.22516875,1.6999755859375,10.50138875,1.6999752859375Q11.77760875,1.6999755859375,12.68022875,2.6286955859375Q13.58401875,3.5586155859375,13.58401875,4.8746155859375Q13.58401875,5.6717455859375,13.22161875,6.3691055859375Q12.87081875,7.0440355859375,12.25807875,7.4824155859375L12.19598875,7.5268355859375L12.60229875,8.6254455859375L12.68748875,8.6065355859375Q12.99714875,8.5378155859375,13.31011875,8.5378155859375Q14.05251875,8.5378155859375,14.70461875,8.8938755859375Q15.33571875,9.2385055859375,15.74981875,9.8411055859375L15.79901875,9.9128055859375L16.42461875,9.6004055859375L16.41741875,9.5314555859375Q16.40571875,9.420605585937501,16.40571875,9.3035255859375Q16.40571875,8.3870655859375,17.03471875,7.7395455859375Q17.66281875,7.0928755859375,18.55141875,7.0928755859375Q19.44071875,7.0928755859375,20.06931875,7.7388255859375Q20.69921875,8.3861155859375,20.69921875,9.3035255859375Q20.69921875,10.2211755859375,20.06931875,10.8693155859375Q19.44051875,11.5162555859375,18.55141875,11.5162655859375ZM11.87023875,6.2768555859375Q12.43658875,5.6941355859375,12.43658875,4.8725255859375Q12.43658875,4.0509155859375,11.87023875,3.4681955859375Q11.30272875,2.8842755859375,10.50138875,2.8842755859375Q9.70005875,2.8842755859375,9.13253875,3.4681855859375Q8.56619875,4.0509155859375,8.56619875,4.8725255859375Q8.56619875,5.6941255859375,9.13253875,6.2768555859375Q9.70005875,6.8607655859375,10.50138875,6.8607655859375Q11.30271875,6.8607655859375,11.87023875,6.2768555859375ZM11.72681875,3.6075855859375Q12.23658875,4.132085585937499,12.23658875,4.8725255859375Q12.23658875,5.6129555859375,11.72681875,6.1374555859375Q11.21820875,6.6607655859375,10.50138875,6.6607655859375Q9.78457875,6.6607655859375,9.27596875,6.1374555859375Q8.766198750000001,5.6129555859375,8.766198750000001,4.8725255859375Q8.766198750000001,4.132085585937499,9.27596875,3.6075855859375Q9.78456875,3.0842755859375,10.50138875,3.0842755859375Q11.21819875,3.0842755859375,11.72681875,3.6075855859375ZM17.84541875,8.5803055859375Q17.55311875,8.8805855859375,17.55311875,9.3035255859375Q17.55321875,9.7267855859375,17.844618750000002,10.0266855859375Q18.13731875,10.3277855859375,18.55141875,10.3277855859375Q18.96561875,10.3277855859375,19.25831875,10.0266855859375Q19.54971875,9.7267855859375,19.54971875,9.3035255859375Q19.54971875,8.8802655859375,19.25831875,8.5803655859375Q18.96561875,8.2792655859375,18.55141875,8.2792655859375Q18.13851875,8.2792655859375,17.84541875,8.5803055859375ZM17.988018750000002,9.8872955859375Q17.75311875,9.6456055859375,17.75311875,9.3035255859375Q17.753218750000002,8.9618555859375,17.98881875,8.7198155859375Q18.222918749999998,8.479265585937501,18.55141875,8.479265585937501Q18.88111875,8.479265585937501,19.114818749999998,8.7197555859375Q19.34971875,8.9614455859375,19.34971875,9.3035255859375Q19.34971875,9.6456055859375,19.114818749999998,9.8872955859375Q18.88111875,10.1277855859375,18.55141875,10.1277855859375Q18.22181875,10.1277855859375,17.988018750000002,9.8872955859375ZM14.61231875,12.9528755859375Q15.15181875,12.3982755859375,15.15181875,11.6162755859375Q15.15181875,10.8338655859375,14.61311875,10.2796355859375Q14.07331875,9.7242055859375,13.31011875,9.7242055859375Q12.54683875,9.7242055859375,12.00701875,10.2796355859375Q11.46836875,10.8338655859375,11.46835875,11.6162755859375Q11.46836875,12.3986755859375,12.00701875,12.9528755859375Q12.54683875,13.5082755859375,13.31011875,13.5082755859375Q14.07211875,13.5082755859375,14.61231875,12.9528755859375ZM14.46971875,10.4190255859375Q14.95181875,10.9150455859375,14.95181875,11.6162755859375Q14.95181875,12.3170755859375,14.46891875,12.8134755859375Q13.98761875,13.3082755859375,13.31011875,13.3082755859375Q12.63135875,13.3082755859375,12.15044875,12.8134755859375Q11.66835875,12.3174755859375,11.66835875,11.6162755859375Q11.66835875,10.9150455859375,12.15044875,10.4190255859375Q12.63135875,9.9242055859375,13.31011875,9.9242055859375Q13.98881875,9.9242055859375,14.46971875,10.4190255859375ZM8.389378749999999,16.5667755859375Q9.06494875,15.8712755859375,9.06494875,14.8908755859375Q9.06494875,13.9108755859375,8.38859875,13.2149755859375Q7.71108875,12.5178755859375,6.75579875,12.5178755859375Q5.8005087500000005,12.5178755859375,5.12300875,13.2149755859375Q4.44665875,13.9108755859375,4.44665875,14.8908755859375Q4.44665875,15.8708755859375,5.12300875,16.5667755859375Q5.80051875,17.263875585937498,6.75579875,17.263875585937498Q7.71227875,17.263875585937498,8.389378749999999,16.5667755859375ZM8.245178750000001,13.3543755859375Q8.86494875,13.9920755859375,8.86494875,14.8908755859375Q8.86494875,15.7900755859375,8.245918750000001,16.4274755859375Q7.62771875,17.063875585937502,6.75579875,17.063875585937502Q5.88502875,17.063875585937502,5.26642875,16.4273755859375Q4.64665875,15.7897755859375,4.64665875,14.8908755859375Q4.64665875,13.9920755859375,5.26642875,13.3543755859375Q5.88502875,12.7178755859375,6.75579875,12.7178755859375Q7.62656875,12.7178755859375,8.245178750000001,13.3543755859375ZM14.69531875,18.0537755859375Q14.18351875,18.5802755859375,14.18351875,19.3218755859375Q14.18351875,20.0635755859375,14.69531875,20.5900755859375Q15.20821875,21.1177755859375,15.93181875,21.1177755859375Q16.655418750000003,21.1177755859375,17.168318749999997,20.5900755859375Q17.680018750000002,20.0635755859375,17.680018750000002,19.3218755859375Q17.680018750000002,18.5802755859375,17.168318749999997,18.0537755859375Q16.655418750000003,17.526075585937498,15.93181875,17.526075585937498Q15.20821875,17.526075585937498,14.69531875,18.0537755859375ZM14.83871875,20.4506755859375Q14.38351875,19.9823755859375,14.38351875,19.3218755859375Q14.38351875,18.6614755859375,14.83871875,18.1931755859375Q15.29271875,17.7260755859375,15.93181875,17.7260755859375Q16.57081875,17.7260755859375,17.02481875,18.1931755859375Q17.48001875,18.6614755859375,17.48001875,19.3218755859375Q17.48001875,19.9823755859375,17.02481875,20.4506755859375Q16.57081875,20.9177755859375,15.93181875,20.9177755859375Q15.29271875,20.9177755859375,14.83871875,20.4506755859375Z" fill-rule="evenodd" fill="#000000" fill-opacity="1"/></g></g></svg>